<svg width="12" height="12" viewBox="0 0 12 12" fill="none" xmlns="http://www.w3.org/2000/svg">
<path d="M6.70355 6.00312L11.8475 0.859214C12.046 0.667475 12.0515 0.351111 11.8598 0.152578C11.668 -0.0459554 11.3517 -0.0514605 11.1531 0.140279C11.149 0.144291 11.1449 0.14839 11.1408 0.152578L5.99688 5.29649L0.852968 0.152548C0.654435 -0.0391912 0.33807 -0.0336862 0.14633 0.164847C-0.0407242 0.358519 -0.0407242 0.665542 0.14633 0.859214L5.29024 6.00312L0.14633 11.147C-0.0487768 11.3422 -0.0487768 11.6585 0.14633 11.8537C0.341467 12.0487 0.657832 12.0487 0.852968 11.8537L5.99688 6.70976L11.1408 11.8537C11.3393 12.0454 11.6557 12.0399 11.8474 11.8414C12.0345 11.6477 12.0345 11.3407 11.8474 11.147L6.70355 6.00312Z" fill="#C1C1C1"/>
</svg>
